<?xml version="1.0" standalone="no"?>
<!DOCTYPE svg PUBLIC "-//W3C//DTD SVG 20010904//EN"
 "http://www.w3.org/TR/2001/REC-SVG-20010904/DTD/svg10.dtd">
<svg version="1.0" xmlns="http://www.w3.org/2000/svg"
 width="512.000000pt" height="512.000000pt" viewBox="0 0 512.000000 512.000000"
 preserveAspectRatio="xMidYMid meet">

<g transform="translate(0.000000,512.000000) scale(0.100000,-0.100000)"
fill="#000000" stroke="none">
<path d="M320 2560 l0 -2240 2240 0 2240 0 0 2240 0 2240 -2240 0 -2240 0 0
-2240z m1888 655 c130 -264 259 -526 284 -583 l48 -103 292 583 293 583 164 3
c129 2 162 0 158 -10 -3 -7 -176 -335 -386 -728 l-381 -715 0 -462 0 -463
-150 0 -150 0 0 476 0 476 -364 681 c-200 375 -371 697 -380 715 l-17 32 176
-2 175 -3 238 -480z"/>
</g>
</svg>
